# xmcd
#
# Track frame offsets:
#	150
#	7307
#	22177
#	38537
#	64570
#	71792
#	88150
#	109030
#	132517
#	144760
#	161957
#	183730
#	204010
#	223417
#
# Disc length: 3331 seconds
#
# Revision: 0
# Processed by: cddbd v1.4PL0 Copyright (c) Steve Scherf et al.
# Submitted via: dBpowerAMP V4.0
#
DISCID=d30d010e
DTITLE=Derek Astles - Seedn'it
DYEAR=2002
DGENRE=
TTITLE0=And They All Joined In...
TTITLE1=Falling down Inta Some Shoes
TTITLE2=Long Time Comin
TTITLE3=The Seed
TTITLE4=Mexicana Interlude
TTITLE5=The Days That We Stopped Being Real
TTITLE6=Sittin' On The Porch
TTITLE7=Velvet
TTITLE8=Lose Myself In The Country
TTITLE9=After The Storm
TTITLE10=My Gal Went Down To The River
TTITLE11=Blueberry
TTITLE12=Things Ain't Simple
TTITLE13=Uncle Sams Two-Step Honky-Tonk/And They All Joined In
EXTD=kinda country, kinda rock, kinda something i've never heard before
EXTT0=
EXTT1=
EXTT2=
EXTT3=
EXTT4=
EXTT5=
EXTT6=
EXTT7=
EXTT8=
EXTT9=
EXTT10=
EXTT11=
EXTT12=
EXTT13=
PLAYORDER=
